# xmcd
#
# Track frame offsets: 
#        182
#        14607
#        36055
#
# Disc length: 871 seconds
#
# Revision: 0
# Processed by: cddbd v1.4PL0 Copyright (c) Steve Scherf et al.
# Submitted via: ExactAudioCopy v0.90b4
#
DISCID=1c036503
DTITLE=Mother Earth - Institution Man
DYEAR=1994
DGENRE=funk
TTITLE0=Institution Man
TTITLE1=Mr.Freedom (live)
TTITLE2=Stoned Woman (live)
EXTD=
EXTT0=
EXTT1=
EXTT2=
PLAYORDER=
